<mxfile host="app.diagrams.net" modified="2024-07-11T07:11:40.500Z" agent="Mozilla/5.0 (Macintosh; Intel Mac OS X 10_15_7) AppleWebKit/537.36 (KHTML, like Gecko) Chrome/120.0.0.0 Safari/537.36" version="24.6.4" etag="DXqAE9CHeVLldmtoEgM5" type="github">
  <diagram name="第 1 页" id="ORJa67HRwYDsLvUHYGUF">
    <mxGraphModel>
      <root>
        <mxCell id="0" />
        <mxCell id="1" parent="0" />
      </root>
    </mxGraphModel>
  </diagram>
</mxfile>
